<?xml version="1.0" encoding="UTF-8" standalone="no"?>
<svg
   width="450"
   height="450"
   viewBox="0 0 450 450"
   fill="none"
   version="1.1"
   id="svg1"
   sodipodi:docname="square-logo.svg"
   inkscape:version="1.4.2 (ebf0e940, 2025-05-08)"
   xmlns:inkscape="http://www.inkscape.org/namespaces/inkscape"
   xmlns:sodipodi="http://sodipodi.sourceforge.net/DTD/sodipodi-0.dtd"
   xmlns="http://www.w3.org/2000/svg"
   xmlns:svg="http://www.w3.org/2000/svg">
  <sodipodi:namedview
     id="namedview1"
     pagecolor="#ffffff"
     bordercolor="#000000"
     borderopacity="0.25"
     inkscape:showpageshadow="2"
     inkscape:pageopacity="0.0"
     inkscape:pagecheckerboard="0"
     inkscape:deskcolor="#d1d1d1"
     inkscape:zoom="0.73651307"
     inkscape:cx="146.63691"
     inkscape:cy="338.75841"
     inkscape:window-width="1512"
     inkscape:window-height="916"
     inkscape:window-x="2371"
     inkscape:window-y="1658"
     inkscape:window-maximized="0"
     inkscape:current-layer="svg1">
    <inkscape:page
       x="0"
       y="0"
       width="450"
       height="450"
       id="page2"
       margin="0"
       bleed="0" />
  </sodipodi:namedview>
  <defs
     id="defs11" />
  <g
     inkscape:groupmode="layer"
     id="layer1"
     inkscape:label="icon"
     transform="matrix(6.0492355,0,0,6.0492355,-221.98574,-1536.5014)"
     style="fill:#009ddc;fill-opacity:1">
    <path
       d="m 111.06137,319.06067 c 0,-5.12986 -4.15852,-9.28848 -9.28824,-9.28848 -5.129714,0 -9.288243,4.15862 -9.288243,9.28848 0,5.12984 4.158529,9.28847 9.288243,9.28847 5.12972,0 9.28824,-4.15863 9.28824,-9.28847 z"
       fill="#1530a3"
       id="path10"
       style="fill:#009ddc;fill-opacity:1;stroke-width:1.03319" />
    <path
       d="m 76.419011,254.08268 c -22.409572,-1.47747 -40.903409,16.87217 -39.663595,39.24096 1.022839,18.38064 15.714592,33.4757 34.074117,34.94285 5.713459,0.45461 11.199619,-0.37195 16.169192,-2.24205 L 80.42773,308.58401 c -2.644927,1.00221 -5.59981,1.40516 -8.658008,1.0642 -8.503033,-0.94021 -15.38398,-7.81099 -16.334501,-16.31423 -1.312133,-11.79916 8.410047,-21.67656 20.15725,-20.63302 9.339904,0.82656 16.716776,8.8132 16.871751,18.18433 0.04133,2.44869 -0.392605,4.77339 -1.219147,6.91211 l 17.429675,6.63315 c 1.84938,-4.89737 2.71725,-10.29068 2.3143,-15.94229 -1.3018,-18.34964 -16.210515,-33.19674 -34.570039,-34.40558 z"
       fill="#1530a3"
       id="path11"
       style="fill:#009ddc;fill-opacity:1;stroke-width:1.03319"
       inkscape:export-filename="favicon.svg"
       inkscape:export-xdpi="96"
       inkscape:export-ydpi="96" />
  </g>
</svg>
